# xmcd
#
# Track frame offsets:
#	150
#	15810
#	27330
#	46917
#	59327
#	76630
#	99625
#	113350
#	134155
#	146632
#	163682
#	181220
#
# Disc length: 2665 seconds
#
# Revision: 2
# Processed by: cddbd v1.5.2PL0 Copyright (c) Steve Scherf et al.
# Submitted via: audiograbber 1.83.01
#
DISCID=900a670c
DTITLE=John Brack and Jeff Turner - Together Again
DYEAR=1997
DGENRE=Country
TTITLE0=John Brack and Jeff Turner - Let Us Lend A Hand
TTITLE1=John Brack and Jeff Turner - Turn On The Light
TTITLE2=Jeff Turner - Wind Beneath My Wings
TTITLE3=Bonnie Jeanne Taylor - Rockin' Around The X-Mas Tree
TTITLE4=John Brack and Jeff Turner - Center Of It All
TTITLE5=John Brack - Why Do You Ask Me
TTITLE6=John Brack and Jeff Turner and Bonnie Jeanne Taylor - Santa Claus Is Coming
TTITLE6=To Town - Rudolph The Red-Nosed Reindeer
TTITLE7=Jeff Turner and Bonnie Jeanne Taylor - Have Yourself A Merry Little Chris
TTITLE7=tmas
TTITLE8=John Brack and Jeff Turner - Candlelight Christmas
TTITLE9=John Brack - Satisfied
TTITLE10=Jeff Turner - Time To Take The Time
TTITLE11=John Brack and Bonnie Jeanne Taylor - Let Me Live
EXTD=
EXTT0=
EXTT1=
EXTT2=
EXTT3=
EXTT4=
EXTT5=
EXTT6=
EXTT7=
EXTT8=
EXTT9=
EXTT10=
EXTT11=
PLAYORDER=
